#!OML:ASF E:\emotionWalksFemale\Project 1\Capture day 1\Session 1\Female1.ASF
:FULLY-SPECIFIED
:DEGREES
169
root 7.81307 15.0964 42.5822 182.7 -0.607725 179.299
lowerback 6.92744 1.22901 1.20622
upperback 0.733151 1.42105 -3.96146
thorax -2.99545 0.597227 -4.92326
lowerneck 4.19239 13.9059 11.0622
upperneck 9.47101 19.1757 -10.3726
head 4.24222 9.44166 -4.10085
rclavicle 4.67144e-015 2.06736e-014
rhumerus -46.9263 17.5543 -96.4815
rradius 41.5853
rwrist 21.7329
rhand -14.2983 -54.6647
rfingers 7.12502
rthumb -168.159 95.6901
lclavicle 4.67144e-015 2.06736e-014
lhumerus -47.1225 4.70509 72.0861
lradius 39.5545
lwrist -19.4107
lhand -14.8361 -33.4826
lfingers 7.12502
lthumb 11.3228 -3.80823
rfemur -15.8025 4.02553 20.683
rtibia 34.2218
rfoot -24.9713 -22.5092
rtoes 5.1566
lfemur -14.5773 -16.1465 -25.0073
ltibia 30.5342
lfoot -23.0168 14.4105
ltoes -38.2152
170
root 7.83012 15.1002 42.5781 182.591 -1.45713 179.229
lowerback 6.9054 1.15906 1.04816
upperback 0.835496 1.3166 -3.92923
thorax -2.89136 0.548933 -4.78697
lowerneck 3.97083 14.0795 11.1223
upperneck 9.48697 19.4167 -10.4532
head 4.32315 9.55721 -4.09208
rclavicle 4.87022e-015 1.51076e-014
rhumerus -46.7258 17.7373 -96.3873
rradius 41.4698
rwrist 21.4608
rhand -14.5873 -53.8926
rfingers 7.12502
rthumb -168.437 96.4464
lclavicle 4.87022e-015 1.51076e-014
lhumerus -47.1085 4.95095 72.0601
lradius 39.9086
lwrist -19.0642
lhand -12.8304 -33.5111
lfingers 7.12502
lthumb 13.2567 -3.95265
rfemur -15.3851 3.90572 20.7311
rtibia 34.0185
rfoot -25.208 -23.1537
rtoes 5.55193
lfemur -14.475 -16.7881 -25.035
ltibia 30.5615
lfoot -22.9472 14.3152
ltoes -38.3196
171
root 7.84584 15.0991 42.5702 182.338 -2.3849 179.211
lowerback 7.04269 1.21601 1.12895
upperback 0.859777 1.38777 -4.03377
thorax -2.93186 0.579804 -4.95296
lowerneck 4.11743 14.0517 11.5151
upperneck 9.42684 19.4042 -10.4847
head 4.32148 9.57226 -4.1653
rclavicle -1.6201e-014 1.11319e-014
rhumerus -46.787 17.2601 -96.329
rradius 41.4513
rwrist 21.1566
rhand -14.6518 -53.721
rfingers 7.12502
rthumb -168.499 96.6145
lclavicle -1.6201e-014 1.11319e-014
lhumerus -46.8783 4.6465 71.9524
lradius 39.6162
lwrist -19.2474
lhand -12.6645 -33.905
lfingers 7.12502
lthumb 13.4166 -4.35702
rfemur -14.7813 3.73343 20.8399
rtibia 33.8137
rfoot -25.5541 -23.7109
rtoes 6.03138
lfemur -14.1966 -17.4642 -25.0751
ltibia 30.6093
lfoot -22.9627 14.2135
ltoes -38.72
172
root 7.85999 15.1 42.5749 182.561 -2.25993 179.469
lowerback 6.97976 1.53639 1.34939
upperback 0.698895 1.84172 -4.01802
thorax -3.01414 0.805564 -5.10498
lowerneck 4.04898 14.1169 11.4807
upperneck 9.26423 19.4821 -10.3512
head 4.27503 9.62073 -4.11416
rclavicle -7.35503e-015 2.94201e-014
rhumerus -46.7363 17.0445 -96.1548
rradius 41.3825
rwrist 21.3065
rhand -14.3782 -54.044
rfingers 7.12502
rthumb -168.236 96.3064
lclavicle -7.35503e-015 2.94201e-014
lhumerus -46.6798 4.55679 71.8955
lradius 39.3114
lwrist -19.5404
lhand -13.6412 -34.1797
lfingers 7.12502
lthumb 12.475 -4.57203
rfemur -15.0035 4.10504 21.1266
rtibia 33.5861
rfoot -25.4969 -23.8566
rtoes 6.49379
lfemur -14.5426 -17.4354 -24.6882
ltibia 30.6401
lfoot -22.9593 14.3888
ltoes -38.9459
173
root 7.87432 15.1024 42.5756 182.519 -3.14176 179.579
lowerback 7.11442 1.46355 1.3906
upperback 0.730516 1.75685 -3.91945
thorax -3.06679 0.765215 -5.02124
lowerneck 3.65869 14.2659 11.2732
upperneck 9.33102 19.6554 -10.1995
head 4.34184 9.6957 -3.99483
rclavicle -4.06515e-014 1.43125e-014
rhumerus -46.8605 17.2377 -95.964
rradius 40.0208
rwrist 25.848
rhand -16.7464 -52.1594
rfingers 7.12502
rthumb -170.52 98.0738
lclavicle -4.06515e-014 1.43125e-014
lhumerus -46.7438 4.66508 71.9678
lradius 39.7276
lwrist -18.9567
lhand -13.3142 -33.6655
lfingers 7.12502
lthumb 12.7903 -4.07734
rfemur -14.7144 3.86972 21.351
rtibia 33.3954
rfoot -26.0066 -24.3631
rtoes 7.99628
lfemur -14.5985 -17.6672 -24.4788
ltibia 30.6453
lfoot -22.8919 13.7933
ltoes -39.0552
174
root 7.89421 15.1185 42.5747 183.142 -3.68508 179.616
lowerback 6.57095 1.63509 1.37386
upperback 0.225448 1.99002 -4.02908
thorax -3.26088 0.877747 -5.14111
lowerneck 4.53231 14.0974 11.9705
upperneck 9.21222 19.4982 -10.3401
head 4.23094 9.65986 -4.21107
rclavicle 5.66536e-014 -5.24792e-014
rhumerus -47.5776 16.7365 -96.1027
rradius 40.1941
rwrist 25.5864
rhand -16.4857 -52.9403
rfingers 7.12502
rthumb -170.268 97.3045
lclavicle 5.66536e-014 -5.24792e-014
lhumerus -47.052 4.52286 71.6683
lradius 39.2386
lwrist -20.1023
lhand -14.931 -34.6471
lfingers 7.12502
lthumb 11.2313 -4.96773
rfemur -15.2183 3.86024 21.4444
rtibia 33.1862
rfoot -26.1922 -24.7832
rtoes 9.2578
lfemur -15.431 -17.4057 -24.1133
ltibia 30.6974
lfoot -22.8004 13.1192
ltoes -39.1756
175
root 7.90438 15.1228 42.5701 183.091 -4.31895 179.487
lowerback 6.61273 1.61542 1.2699
upperback 0.294482 1.9521 -4.04913
thorax -3.21925 0.860091 -5.09932
lowerneck 4.29612 14.1893 11.9439
upperneck 9.03279 19.6249 -10.4783
head 4.23921 9.71999 -4.22243
rclavicle -2.42517e-014 1.43125e-014
rhumerus -47.1564 16.6593 -95.8363
rradius 41.5364
rwrist 21.0194
rhand -13.8063 -54.8837
rfingers 7.12502
rthumb -167.684 95.499
lclavicle -2.42517e-014 1.43125e-014
lhumerus -47.0081 4.32256 71.897
lradius 39.8535
lwrist -19.1398
lhand -12.2456 -33.6023
lfingers 7.12502
lthumb 13.8203 -4.08144
rfemur -14.9278 3.64146 21.3734
rtibia 33.0244
rfoot -26.3227 -24.9065
rtoes 10.3344
lfemur -15.3585 -18.3814 -24.2356
ltibia 30.6924
lfoot -22.7344 13.6539
ltoes -39.3252
176
root 7.91764 15.1274 42.5686 183.194 -4.93002 179.667
lowerback 6.495 1.58539 1.38841
upperback 0.502536 1.93219 -3.96249
thorax -2.9383 0.858484 -5.0637
lowerneck 3.38415 14.3917 11.637
upperneck 8.92213 19.8546 -10.4953
head 4.34855 9.80973 -4.09681
rclavicle -1.20265e-014 -1.51076e-014
rhumerus -46.4876 16.7716 -95.5627
rradius 41.2938
rwrist 21.5857
rhand -14.2941 -55.2354
rfingers 7.12502
rthumb -168.154 95.1196
lclavicle -1.20265e-014 -1.51076e-014
lhumerus -46.5678 4.33509 72.1217
lradius 39.7404
lwrist -19.8025
lhand -13.6922 -33.6329
lfingers 7.12502
lthumb 12.4259 -4.0222
rfemur -14.878 3.52741 21.6527
rtibia 32.89
rfoot -26.3672 -25.216
rtoes 11.0782
lfemur -15.5758 -18.4619 -23.922
ltibia 30.6401
lfoot -22.6336 13.2964
ltoes -39.5802
177
root 7.93071 15.1292 42.5679 183.187 -5.35056 179.778
lowerback 6.4593 1.57474 1.35958
upperback 0.491768 1.92945 -3.82936
thorax -2.93533 0.862071 -4.90615
lowerneck 3.44842 14.5641 11.3355
upperneck 8.65829 20.0767 -10.4294
head 4.2456 9.92182 -4.03273
rclavicle -9.74045e-015 -1.74931e-014
rhumerus -46.4636 17.1241 -95.4157
rradius 41.2154
rwrist 21.8586
rhand -14.3015 -55.2296
rfingers 7.12502
rthumb -168.162 95.125
lclavicle -9.74045e-015 -1.74931e-014
lhumerus -46.5333 4.80744 72.0967
lradius 39.7039
lwrist -19.6825
lhand -14.9845 -33.4524
lfingers 7.12502
lthumb 11.1797 -3.77024
rfemur -14.7537 3.52294 21.8404
rtibia 32.7463
rfoot -26.584 -25.675
rtoes 11.6469
lfemur -15.6416 -18.4677 -23.7402
ltibia 30.6031
lfoot -22.569 13.0465
ltoes -39.7854
